<svg width="20" height="20" viewBox="0 0 20 20" fill="none" xmlns="http://www.w3.org/2000/svg">
<path d="M1.66797 8.3335H18.3346" stroke="#292D32" stroke-width="1.5" stroke-miterlimit="10" stroke-linecap="round" stroke-linejoin="round"/>
<path d="M9.62292 17.0831H5.36459C2.40626 17.0831 1.65625 16.3498 1.65625 13.4248V6.57481C1.65625 3.92481 2.27294 3.07481 4.59794 2.94147C4.83127 2.93314 5.08959 2.9248 5.36459 2.9248H14.6229C17.5812 2.9248 18.3313 3.65814 18.3313 6.58314V10.2581" stroke="#292D32" stroke-width="1.5" stroke-linecap="round" stroke-linejoin="round"/>
<path d="M5 13.3335H8.33333" stroke="#292D32" stroke-width="1.5" stroke-miterlimit="10" stroke-linecap="round" stroke-linejoin="round"/>
<path d="M18.3346 14.9998C18.3346 15.6248 18.1596 16.2165 17.8513 16.7165C17.2763 17.6832 16.218 18.3332 15.0013 18.3332C13.7846 18.3332 12.7263 17.6832 12.1513 16.7165C11.843 16.2165 11.668 15.6248 11.668 14.9998C11.668 13.1582 13.1596 11.6665 15.0013 11.6665C16.843 11.6665 18.3346 13.1582 18.3346 14.9998Z" stroke="#292D32" stroke-width="1.5" stroke-miterlimit="10" stroke-linecap="round" stroke-linejoin="round"/>
<path d="M13.7031 14.9998L14.5281 15.8248L16.3031 14.1831" stroke="#292D32" stroke-width="1.5" stroke-linecap="round" stroke-linejoin="round"/>
</svg>
