<svg width="26" height="26" viewBox="0 0 26 26" fill="none" xmlns="http://www.w3.org/2000/svg">
<path d="M13 16.25C14.7949 16.25 16.25 14.7949 16.25 13C16.25 11.2051 14.7949 9.75 13 9.75C11.2051 9.75 9.75 11.2051 9.75 13C9.75 14.7949 11.2051 16.25 13 16.25Z" stroke="white" stroke-width="1.5" stroke-miterlimit="10" stroke-linecap="round" stroke-linejoin="round"/>
<path d="M2.16663 13.9533V12.0467C2.16663 10.92 3.08746 9.98835 4.22496 9.98835C6.18579 9.98835 6.98746 8.60168 6.00163 6.90085C5.43829 5.92585 5.77413 4.65835 6.75996 4.09501L8.63413 3.02251C9.48996 2.51335 10.595 2.81668 11.1041 3.67251L11.2233 3.87835C12.1983 5.57918 13.8016 5.57918 14.7875 3.87835L14.9066 3.67251C15.4158 2.81668 16.5208 2.51335 17.3766 3.02251L19.2508 4.09501C20.2366 4.65835 20.5725 5.92585 20.0091 6.90085C19.0233 8.60168 19.825 9.98835 21.7858 9.98835C22.9125 9.98835 23.8441 10.9092 23.8441 12.0467V13.9533C23.8441 15.08 22.9233 16.0117 21.7858 16.0117C19.825 16.0117 19.0233 17.3983 20.0091 19.0992C20.5725 20.085 20.2366 21.3417 19.2508 21.905L17.3766 22.9775C16.5208 23.4867 15.4158 23.1833 14.9066 22.3275L14.7875 22.1217C13.8125 20.4208 12.2091 20.4208 11.2233 22.1217L11.1041 22.3275C10.595 23.1833 9.48996 23.4867 8.63413 22.9775L6.75996 21.905C5.77413 21.3417 5.43829 20.0742 6.00163 19.0992C6.98746 17.3983 6.18579 16.0117 4.22496 16.0117C3.08746 16.0117 2.16663 15.08 2.16663 13.9533Z" stroke="white" stroke-width="1.5" stroke-miterlimit="10" stroke-linecap="round" stroke-linejoin="round"/>
</svg>
